  0
SECTION
  2
HEADER
  9
$ACADVER
  1
AC1018
  9
$ACADMAINTVER
 70
     0
  9
$DWGCODEPAGE
  3
ANSI_932
  9
$INSBASE
 10
0.0
 20
0.0
 30
0.0
  9
$EXTMIN
 10
1.000000000000000E+20
 20
1.000000000000000E+20
 30
1.000000000000000E+20
  9
$EXTMAX
 10
-1.000000000000000E+20
 20
-1.000000000000000E+20
 30
-1.000000000000000E+20
  9
$LIMMIN
 10
0.0
 20
0.0
  9
$LIMMAX
 10
12.0
 20
9.0
  9
$ORTHOMODE
 70
     0
  9
$REGENMODE
 70
     1
  9
$FILLMODE
 70
     1
  9
$QTEXTMODE
 70
     0
  9
$MIRRTEXT
 70
     1
  9
$LTSCALE
 40
1.0
  9
$ATTMODE
 70
     1
  9
$TEXTSIZE
 40
0.2
  9
$TRACEWID
 40
0.05
  9
$TEXTSTYLE
  7
Standard
  9
$CLAYER
  8
0
  9
$CELTYPE
  6
ByLayer
  9
$CECOLOR
 62
   256
  9
$CELTSCALE
 40
1.0
  9
$DISPSILH
 70
     0
  9
$DIMSCALE
 40
1.0
  9
$DIMASZ
 40
0.18
  9
$DIMEXO
 40
0.0625
  9
$DIMDLI
 40
0.38
  9
$DIMRND
 40
0.0
  9
$DIMDLE
 40
0.0
  9
$DIMEXE
 40
0.18
  9
$DIMTP
 40
0.0
  9
$DIMTM
 40
0.0
  9
$DIMTXT
 40
0.18
  9
$DIMCEN
 40
0.09
  9
$DIMTSZ
 40
0.0
  9
$DIMTOL
 70
     0
  9
$DIMLIM
 70
     0
  9
$DIMTIH
 70
     1
  9
$DIMTOH
 70
     1
  9
$DIMSE1
 70
     0
  9
$DIMSE2
 70
     0
  9
$DIMTAD
 70
     0
  9
$DIMZIN
 70
     0
  9
$DIMBLK
  1

  9
$DIMASO
 70
     1
  9
$DIMSHO
 70
     1
  9
$DIMPOST
  1

  9
$DIMAPOST
  1

  9
$DIMALT
 70
     0
  9
$DIMALTD
 70
     2
  9
$DIMALTF
 40
25.4
  9
$DIMLFAC
 40
1.0
  9
$DIMTOFL
 70
     0
  9
$DIMTVP
 40
0.0
  9
$DIMTIX
 70
     0
  9
$DIMSOXD
 70
     0
  9
$DIMSAH
 70
     0
  9
$DIMBLK1
  1

  9
$DIMBLK2
  1

  9
$DIMSTYLE
  2
Standard
  9
$DIMCLRD
 70
     0
  9
$DIMCLRE
 70
     0
  9
$DIMCLRT
 70
     0
  9
$DIMTFAC
 40
1.0
  9
$DIMGAP
 40
0.09
  9
$DIMJUST
 70
     0
  9
$DIMSD1
 70
     0
  9
$DIMSD2
 70
     0
  9
$DIMTOLJ
 70
     1
  9
$DIMTZIN
 70
     0
  9
$DIMALTZ
 70
     0
  9
$DIMALTTZ
 70
     0
  9
$DIMUPT
 70
     0
  9
$DIMDEC
 70
     4
  9
$DIMTDEC
 70
     4
  9
$DIMALTU
 70
     2
  9
$DIMALTTD
 70
     2
  9
$DIMTXSTY
  7
Standard
  9
$DIMAUNIT
 70
     0
  9
$DIMADEC
 70
     0
  9
$DIMALTRND
 40
0.0
  9
$DIMAZIN
 70
     0
  9
$DIMDSEP
 70
    46
  9
$DIMATFIT
 70
     3
  9
$DIMFRAC
 70
     0
  9
$DIMLDRBLK
  1

  9
$DIMLUNIT
 70
     2
  9
$DIMLWD
 70
    -2
  9
$DIMLWE
 70
    -2
  9
$DIMTMOVE
 70
     0
  9
$LUNITS
 70
     2
  9
$LUPREC
 70
     4
  9
$SKETCHINC
 40
0.1
  9
$FILLETRAD
 40
0.5
  9
$AUNITS
 70
     0
  9
$AUPREC
 70
     0
  9
$MENU
  1
.
  9
$ELEVATION
 40
0.0
  9
$PELEVATION
 40
0.0
  9
$THICKNESS
 40
0.0
  9
$LIMCHECK
 70
     0
  9
$CHAMFERA
 40
0.5
  9
$CHAMFERB
 40
0.5
  9
$CHAMFERC
 40
1.0
  9
$CHAMFERD
 40
0.0
  9
$SKPOLY
 70
     0
  9
$TDCREATE
 40
2458991.727604167
  9
$TDUCREATE
 40
2458991.9359375
  9
$TDUPDATE
 40
2458991.727604178
  9
$TDUUPDATE
 40
2458991.935937512
  9
$TDINDWG
 40
0.0000000116
  9
$TDUSRTIMER
 40
0.0000000116
  9
$USRTIMER
 70
     1
  9
$ANGBASE
 50
0.0
  9
$ANGDIR
 70
     0
  9
$PDMODE
 70
     0
  9
$PDSIZE
 40
0.0
  9
$PLINEWID
 40
0.0
  9
$SPLFRAME
 70
     0
  9
$SPLINETYPE
 70
     6
  9
$SPLINESEGS
 70
     8
  9
$HANDSEED
  5
47
  9
$SURFTAB1
 70
     6
  9
$SURFTAB2
 70
     6
  9
$SURFTYPE
 70
     6
  9
$SURFU
 70
     6
  9
$SURFV
 70
     6
  9
$UCSBASE
  2

  9
$UCSNAME
  2

  9
$UCSORG
 10
0.0
 20
0.0
 30
0.0
  9
$UCSXDIR
 10
1.0
 20
0.0
 30
0.0
  9
$UCSYDIR
 10
0.0
 20
1.0
 30
0.0
  9
$UCSORTHOREF
  2

  9
$UCSORTHOVIEW
 70
     0
  9
$UCSORGTOP
 10
0.0
 20
0.0
 30
0.0
  9
$UCSORGBOTTOM
 10
0.0
 20
0.0
 30
0.0
  9
$UCSORGLEFT
 10
0.0
 20
0.0
 30
0.0
  9
$UCSORGRIGHT
 10
0.0
 20
0.0
 30
0.0
  9
$UCSORGFRONT
 10
0.0
 20
0.0
 30
0.0
  9
$UCSORGBACK
 10
0.0
 20
0.0
 30
0.0
  9
$PUCSBASE
  2

  9
$PUCSNAME
  2

  9
$PUCSORG
 10
0.0
 20
0.0
 30
0.0
  9
$PUCSXDIR
 10
1.0
 20
0.0
 30
0.0
  9
$PUCSYDIR
 10
0.0
 20
1.0
 30
0.0
  9
$PUCSORTHOREF
  2

  9
$PUCSORTHOVIEW
 70
     0
  9
$PUCSORGTOP
 10
0.0
 20
0.0
 30
0.0
  9
$PUCSORGBOTTOM
 10
0.0
 20
0.0
 30
0.0
  9
$PUCSORGLEFT
 10
0.0
 20
0.0
 30
0.0
  9
$PUCSORGRIGHT
 10
0.0
 20
0.0
 30
0.0
  9
$PUCSORGFRONT
 10
0.0
 20
0.0
 30
0.0
  9
$PUCSORGBACK
 10
0.0
 20
0.0
 30
0.0
  9
$USERI1
 70
     0
  9
$USERI2
 70
     0
  9
$USERI3
 70
     0
  9
$USERI4
 70
     0
  9
$USERI5
 70
     0
  9
$USERR1
 40
0.0
  9
$USERR2
 40
0.0
  9
$USERR3
 40
0.0
  9
$USERR4
 40
0.0
  9
$USERR5
 40
0.0
  9
$WORLDVIEW
 70
     1
  9
$SHADEDGE
 70
     3
  9
$SHADEDIF
 70
    70
  9
$TILEMODE
 70
     1
  9
$MAXACTVP
 70
    64
  9
$PINSBASE
 10
0.0
 20
0.0
 30
0.0
  9
$PLIMCHECK
 70
     0
  9
$PEXTMIN
 10
1.000000000000000E+20
 20
1.000000000000000E+20
 30
1.000000000000000E+20
  9
$PEXTMAX
 10
-1.000000000000000E+20
 20
-1.000000000000000E+20
 30
-1.000000000000000E+20
  9
$PLIMMIN
 10
0.0
 20
0.0
  9
$PLIMMAX
 10
12.0
 20
9.0
  9
$UNITMODE
 70
     0
  9
$VISRETAIN
 70
     1
  9
$PLINEGEN
 70
     0
  9
$PSLTSCALE
 70
     1
  9
$TREEDEPTH
 70
  3020
  9
$CMLSTYLE
  2
Standard
  9
$CMLJUST
 70
     0
  9
$CMLSCALE
 40
1.0
  9
$PROXYGRAPHICS
 70
     1
  9
$MEASUREMENT
 70
     0
  9
$CELWEIGHT
370
    -1
  9
$ENDCAPS
280
     0
  9
$JOINSTYLE
280
     0
  9
$LWDISPLAY
290
     1
  9
$INSUNITS
 70
     1
  9
$HYPERLINKBASE
  1

  9
$STYLESHEET
  1

  9
$XEDIT
290
     1
  9
$CEPSNTYPE
380
     0
  9
$PSTYLEMODE
290
     1
  9
$FINGERPRINTGUID
  2
{B03F7C25-7731-3767-5A3C-AA81EE9C4381}
  9
$VERSIONGUID
  2
{FAEB1C32-E019-11D5-929B-00C0DF256EC4}
  9
$EXTNAMES
290
     1
  9
$PSVPSCALE
 40
0.0
  9
$OLESTARTUP
290
     0
  9
$SORTENTS
280
   127
  9
$INDEXCTL
280
     0
  9
$HIDETEXT
280
     1
  9
$XCLIPFRAME
290
     0
  9
$HALOGAP
280
     0
  9
$OBSCOLOR
 70
   257
  9
$OBSLTYPE
280
     0
  9
$INTERSECTIONDISPLAY
280
     0
  9
$INTERSECTIONCOLOR
 70
   257
  9
$DIMASSOC
280
     2
  9
$PROJECTNAME
  1

  0
ENDSEC
  0
SECTION
  2
CLASSES
  0
CLASS
  1
ACDBDICTIONARYWDFLT
  2
AcDbDictionaryWithDefault
  3
ObjectDBX Classes
 90
        0
 91
        3
280
     0
281
     0
  0
CLASS
  1
VISUALSTYLE
  2
AcDbVisualStyle
  3
ObjectDBX Classes
 90
     4095
 91
        3
280
     0
281
     0
  0
ENDSEC
  0
SECTION
  2
TABLES
  0
TABLE
  2
VPORT
  5
8
330
0
100
AcDbSymbolTable
 70
     1
  0
VPORT
  5
29
330
8
100
AcDbSymbolTableRecord
100
AcDbViewportTableRecord
  2
*Active
 70
     0
 10
0.0
 20
0.0
 11
1.0
 21
1.0
 12
0.0
 22
0.0
 13
0.0
 23
0.0
 14
0.5
 24
0.5
 15
0.5
 25
0.5
 16
0.0
 26
0.0
 36
1.0
 17
6.784722222222221
 27
10.86805555555556
 37
0.0
 40
2.763888888888889
 41
1.150753768844221
 42
50.0
 43
0.0
 44
0.0
 50
0.0
 51
0.0
 71
     0
 72
   100
 73
     1
 74
     3
 75
     0
 76
     0
 77
     0
 78
     0
281
     0
 65
     1
110
0.0
120
0.0
130
0.0
111
1.0
121
0.0
131
0.0
112
0.0
122
1.0
132
0.0
 79
     0
146
0.0
  0
ENDTAB
  0
TABLE
  2
LTYPE
  5
5
330
0
100
AcDbSymbolTable
 70
     1
  0
LTYPE
  5
14
330
5
100
AcDbSymbolTableRecord
100
AcDbLinetypeTableRecord
  2
ByBlock
 70
     0
  3

 72
    65
 73
     0
 40
0.0
  0
LTYPE
  5
15
330
5
100
AcDbSymbolTableRecord
100
AcDbLinetypeTableRecord
  2
ByLayer
 70
     0
  3

 72
    65
 73
     0
 40
0.0
  0
LTYPE
  5
16
330
5
100
AcDbSymbolTableRecord
100
AcDbLinetypeTableRecord
  2
Continuous
 70
     0
  3
Solid line
 72
    65
 73
     0
 40
0.0
  0
ENDTAB
  0
TABLE
  2
LAYER
  5
2
330
0
100
AcDbSymbolTable
 70
     2
  0
LAYER
  5
10
330
2
100
AcDbSymbolTableRecord
100
AcDbLayerTableRecord
  2
0
 70
     0
 62
     7
  6
Continuous
370
    -3
390
F
  0
LAYER
  5
3B
330
2
100
AcDbSymbolTableRecord
100
AcDbLayerTableRecord
  2
Layer 1
 70
     0
 62
     7
  6
Continuous
370
    -3
390
F
  0
ENDTAB
  0
TABLE
  2
STYLE
  5
3
330
0
100
AcDbSymbolTable
 70
     1
  0
STYLE
  5
11
330
3
100
AcDbSymbolTableRecord
100
AcDbTextStyleTableRecord
  2
Standard
 70
     0
 40
0.0
 41
1.0
 50
0.0
 71
     0
 42
0.2
  3
txt
  4

  0
ENDTAB
  0
TABLE
  2
VIEW
  5
6
330
0
100
AcDbSymbolTable
 70
     0
  0
ENDTAB
  0
TABLE
  2
UCS
  5
7
330
0
100
AcDbSymbolTable
 70
     0
  0
ENDTAB
  0
TABLE
  2
APPID
  5
9
330
0
100
AcDbSymbolTable
 70
     1
  0
APPID
  5
12
330
9
100
AcDbSymbolTableRecord
100
AcDbRegAppTableRecord
  2
ACAD
 70
     0
  0
ENDTAB
  0
TABLE
  2
DIMSTYLE
  5
A
330
0
100
AcDbSymbolTable
 70
     1
100
AcDbDimStyleTable
  0
DIMSTYLE
105
27
330
A
100
AcDbSymbolTableRecord
100
AcDbDimStyleTableRecord
  2
Standard
 70
     0
340
11
  0
ENDTAB
  0
TABLE
  2
BLOCK_RECORD
  5
1
330
0
100
AcDbSymbolTable
 70
     2
  0
BLOCK_RECORD
  5
1F
330
1
100
AcDbSymbolTableRecord
100
AcDbBlockTableRecord
  2
*Model_Space
340
22
  0
BLOCK_RECORD
  5
1B
330
1
100
AcDbSymbolTableRecord
100
AcDbBlockTableRecord
  2
*Paper_Space
340
1E
  0
BLOCK_RECORD
  5
23
330
1
100
AcDbSymbolTableRecord
100
AcDbBlockTableRecord
  2
*Paper_Space0
340
26
  0
BLOCK_RECORD
  5
3C
330
1
100
AcDbSymbolTableRecord
100
AcDbBlockTableRecord
  2
block 2
340
0
102
{BLKREFS
331
3D
102
}
  0
ENDTAB
  0
ENDSEC
  0
SECTION
  2
BLOCKS
  0
BLOCK
  5
20
330
1F
100
AcDbEntity
  8
0
100
AcDbBlockBegin
  2
*Model_Space
 70
     0
 71
     0
 10
0.0
 20
0.0
 30
0.0
  3
*Model_Space
  1

  0
ENDBLK
  5
21
330
1F
100
AcDbEntity
  8
0
100
AcDbBlockEnd
  0
BLOCK
  5
1C
330
1B
100
AcDbEntity
 67
     1
  8
0
100
AcDbBlockBegin
  2
*Paper_Space
 70
     0
 71
     0
 10
0.0
 20
0.0
 30
0.0
  3
*Paper_Space
  1

  0
ENDBLK
  5
1D
330
1B
100
AcDbEntity
 67
     1
  8
0
100
AcDbBlockEnd
  0
BLOCK
  5
24
330
23
100
AcDbEntity
  8
0
100
AcDbBlockBegin
  2
*Paper_Space0
 70
     0
 71
     0
 10
0.0
 20
0.0
 30
0.0
  3
*Paper_Space0
  1

  0
ENDBLK
  5
25
330
23
100
AcDbEntity
  8
0
100
AcDbBlockEnd
  0
BLOCK
  5
3E
330
3C
100
AcDbEntity
  8
0
100
AcDbBlockBegin
  2
block 2
 70
     0
 71
     0
 10
0.0
 20
0.0
 30
0.0
  3
block 2
  1

  0
SPLINE
  5
40
330
3C
100
AcDbEntity
  8
Layer 1
370
     0
100
AcDbSpline
210
0.0
220
0.0
230
1.0
 70
    11
 71
     3
 72
   143
 73
   139
 74
     0
 42
0.0000000001
 43
0.0000000001
 40
0.0
 40
0.0
 40
0.0
 40
0.0
 40
1.0
 40
1.0
 40
1.0
 40
2.0
 40
2.0
 40
2.0
 40
3.0
 40
3.0
 40
3.0
 40
4.0
 40
4.0
 40
4.0
 40
5.0
 40
5.0
 40
5.0
 40
6.0
 40
6.0
 40
6.0
 40
7.0
 40
7.0
 40
7.0
 40
8.0
 40
8.0
 40
8.0
 40
9.0
 40
9.0
 40
9.0
 40
10.0
 40
10.0
 40
10.0
 40
11.0
 40
11.0
 40
11.0
 40
12.0
 40
12.0
 40
12.0
 40
13.0
 40
13.0
 40
13.0
 40
14.0
 40
14.0
 40
14.0
 40
15.0
 40
15.0
 40
15.0
 40
16.0
 40
16.0
 40
16.0
 40
17.0
 40
17.0
 40
17.0
 40
18.0
 40
18.0
 40
18.0
 40
19.0
 40
19.0
 40
19.0
 40
20.0
 40
20.0
 40
20.0
 40
21.0
 40
21.0
 40
21.0
 40
22.0
 40
22.0
 40
22.0
 40
23.0
 40
23.0
 40
23.0
 40
24.0
 40
24.0
 40
24.0
 40
25.0
 40
25.0
 40
25.0
 40
26.0
 40
26.0
 40
26.0
 40
27.0
 40
27.0
 40
27.0
 40
28.0
 40
28.0
 40
28.0
 40
29.0
 40
29.0
 40
29.0
 40
30.0
 40
30.0
 40
30.0
 40
31.0
 40
31.0
 40
31.0
 40
32.0
 40
32.0
 40
32.0
 40
33.0
 40
33.0
 40
33.0
 40
34.0
 40
34.0
 40
34.0
 40
35.0
 40
35.0
 40
35.0
 40
36.0
 40
36.0
 40
36.0
 40
37.0
 40
37.0
 40
37.0
 40
38.0
 40
38.0
 40
38.0
 40
39.0
 40
39.0
 40
39.0
 40
40.0
 40
40.0
 40
40.0
 40
41.0
 40
41.0
 40
41.0
 40
42.0
 40
42.0
 40
42.0
 40
43.0
 40
43.0
 40
43.0
 40
44.0
 40
44.0
 40
44.0
 40
45.0
 40
45.0
 40
45.0
 40
46.0
 40
46.0
 40
46.0
 40
46.0
 10
6.011800130208333
 20
12.11155192057292
 30
0.0
 10
6.083157009548611
 20
12.11258951822917
 30
0.0
 10
6.11572265625
 20
12.08954535590278
 30
0.0
 10
6.139146592881944
 20
12.04312472873264
 30
0.0
 10
6.148464626736111
 20
12.02466498480903
 30
0.0
 10
6.156114366319444
 20
11.98946804470486
 30
0.0
 10
6.146748860677083
 20
11.96329074435764
 30
0.0
 10
6.142564561631944
 20
11.95159912109375
 30
0.0
 10
6.136678059895833
 20
11.93705240885417
 30
0.0
 10
6.129638671875
 20
11.92717827690972
 30
0.0
 10
6.108249240451388
 20
11.89714219835069
 30
0.0
 10
6.066786024305555
 20
11.88005913628472
 30
0.0
 10
6.036505805121528
 20
11.85875108506944
 30
0.0
 10
5.987684461805555
 20
11.82440185546875
 30
0.0
 10
5.946811252170138
 20
11.78034803602431
 30
0.0
 10
5.899651421440972
 20
11.74470350477431
 30
0.0
 10
5.885592990451388
 20
11.73408338758681
 30
0.0
 10
5.872355143229166
 20
11.71707492404514
 30
0.0
 10
5.86163330078125
 20
11.70288764105903
 30
0.0
 10
5.853400336371528
 20
11.69529215494792
 30
0.0
 10
5.845160590277778
 20
11.68768310546875
 30
0.0
 10
5.836927625868055
 20
11.68008083767361
 30
0.0
 10
5.819600423177083
 20
11.65719265407986
 30
0.0
 10
5.800916883680555
 20
11.63681369357639
 30
0.0
 10
5.783704969618055
 20
11.61355251736111
 30
0.0
 10
5.758829752604166
 20
11.57993570963542
 30
0.0
 10
5.730428059895833
 20
11.54686821831597
 30
0.0
 10
5.707668728298611
 20
11.51091172960069
 30
0.0
 10
5.658921983506944
 20
11.43387858072917
 30
0.0
 10
5.620808919270833
 20
11.34948052300347
 30
0.0
 10
5.584120008680555
 20
11.260009765625
 30
0.0
 10
5.559868706597222
 20
11.20086669921875
 30
0.0
 10
5.552395290798611
 20
11.13865152994792
 30
0.0
 10
5.534708658854166
 20
11.07183837890625
 30
0.0
 10
5.5177001953125
 20
11.00758870442708
 30
0.0
 10
5.511915418836805
 20
10.93220350477431
 30
0.0
 10
5.511895073784722
 20
10.85325113932292
 30
0.0
 10
5.511895073784722
 20
10.82347954644097
 30
0.0
 10
5.511895073784722
 20
10.79369439019097
 30
0.0
 10
5.511895073784722
 20
10.76390923394097
 30
0.0
 10
5.515062120225694
 20
10.73033989800347
 30
0.0
 10
5.518229166666666
 20
10.69675021701389
 30
0.0
 10
5.521402994791666
 20
10.66317409939236
 30
0.0
 10
5.536512586805555
 20
10.59853108723958
 30
0.0
 10
5.541619194878472
 20
10.53422715928819
 30
0.0
 10
5.561319986979166
 20
10.47499593098958
 30
0.0
 10
5.604288736979166
 20
10.34576416015625
 30
0.0
 10
5.655571831597222
 20
10.22672526041667
 30
0.0
 10
5.7266845703125
 20
10.12525770399306
 30
0.0
 10
5.762139214409722
 20
10.07465955946181
 30
0.0
 10
5.803887261284722
 20
10.02954779730903
 30
0.0
 10
5.840725368923611
 20
9.98080105251736
 30
0.0
 10
5.851453993055555
 20
9.96661376953125
 30
0.0
 10
5.868937174479166
 20
9.952473958333332
 30
0.0
 10
5.882541232638888
 20
9.94088406032986
 30
0.0
 10
5.895846896701388
 20
9.926954481336805
 30
0.0
 10
5.909152560763888
 20
9.913011338975695
 30
0.0
 10
5.922458224826388
 20
9.899068196614582
 30
0.0
 10
5.958306206597222
 20
9.871955023871527
 30
0.0
 10
5.990410698784722
 20
9.839850531684027
 30
0.0
 10
6.027004665798611
 20
9.81353759765625
 30
0.0
 10
6.0589599609375
 20
9.790547688802082
 30
0.0
 10
6.101453993055555
 20
9.771708170572916
 30
0.0
 10
6.123942057291666
 20
9.73940700954861
 30
0.0
 10
6.130018446180555
 20
9.73067898220486
 30
0.0
 10
6.135796440972222
 20
9.717454698350695
 30
0.0
 10
6.139146592881944
 20
9.70709228515625
 30
0.0
 10
6.165934244791666
 20
9.624152289496527
 30
0.0
 10
6.099453396267361
 20
9.570468478732638
 30
0.0
 10
6.040310329861111
 20
9.556932237413195
 30
0.0
 10
5.995429144965278
 20
9.546664767795138
 30
0.0
 10
5.95623779296875
 20
9.58187527126736
 30
0.0
 10
5.933865017361111
 20
9.596849229600695
 30
0.0
 10
5.854621039496528
 20
9.649881998697916
 30
0.0
 10
5.785061306423611
 20
9.709506564670138
 30
0.0
 10
5.719075520833333
 20
9.775519476996527
 30
0.0
 10
5.656521267361111
 20
9.83810085720486
 30
0.0
 10
5.597703721788194
 20
9.90545654296875
 30
0.0
 10
5.546108669704861
 20
9.978902180989582
 30
0.0
 10
5.511379665798611
 20
10.02834065755208
 30
0.0
 10
5.48284912109375
 20
10.08258056640625
 30
0.0
 10
5.451076931423611
 20
10.13475884331597
 30
0.0
 10
5.438971625434028
 20
10.15463595920139
 30
0.0
 10
5.432149251302083
 20
10.17570665147569
 30
0.0
 10
5.422559950086805
 20
10.19748942057292
 30
0.0
 10
5.4033203125
 20
10.24119059244792
 30
0.0
 10
5.382527669270833
 20
10.28826904296875
 30
0.0
 10
5.363633897569444
 20
10.33434380425347
 30
0.0
 10
5.34051513671875
 20
10.39074028862847
 30
0.0
 10
5.329305013020833
 20
10.45412868923611
 30
0.0
 10
5.31231689453125
 20
10.51491292317708
 30
0.0
 10
5.305609809027778
 20
10.53890652126736
 30
0.0
 10
5.3070068359375
 20
10.56040445963542
 30
0.0
 10
5.300910101996528
 20
10.58523898654514
 30
0.0
 10
5.29180908203125
 20
10.622314453125
 30
0.0
 10
5.292629665798611
 20
10.66740587022569
 30
0.0
 10
5.283799913194444
 20
10.70688883463542
 30
0.0
 10
5.283175998263888
 20
10.72652859157986
 30
0.0
 10
5.282538519965278
 20
10.74617513020833
 30
0.0
 10
5.281901041666666
 20
10.76581488715278
 30
0.0
 10
5.276475694444444
 20
10.79145643446181
 30
0.0
 10
5.276285807291666
 20
10.875244140625
 30
0.0
 10
5.281901041666666
 20
10.90077039930556
 30
0.0
 10
5.281901041666666
 20
10.91217041015625
 30
0.0
 10
5.281901041666666
 20
10.92357720269097
 30
0.0
 10
5.281901041666666
 20
10.93498399522569
 30
0.0
 10
5.287556966145833
 20
10.96021185980903
 30
0.0
 10
5.283399793836805
 20
10.98841010199653
 30
0.0
 10
5.289510091145833
 20
11.01481797960069
 30
0.0
 10
5.294365776909722
 20
11.03583441840278
 30
0.0
 10
5.293362087673611
 20
11.05887179904514
 30
0.0
 10
5.29901123046875
 20
11.08134629991319
 30
0.0
 10
5.314860026041666
 20
11.14441596137153
 30
0.0
 10
5.322998046875
 20
11.20844862196181
 30
0.0
 10
5.342725965711805
 20
11.26761203342014
 30
0.0
 10
5.395263671875
 20
11.42519124348958
 30
0.0
 10
5.461446126302083
 20
11.56610107421875
 30
0.0
 10
5.548014322916666
 20
11.68958197699653
 30
0.0
 10
5.573621961805555
 20
11.72612169053819
 30
0.0
 10
5.602891710069444
 20
11.76032850477431
 30
0.0
 10
5.629740397135416
 20
11.79602728949653
 30
0.0
 10
5.637980143229166
 20
11.80426025390625
 30
0.0
 10
5.646213107638888
 20
11.8125
 30
0.0
 10
5.654446072048611
 20
11.82073974609375
 30
0.0
 10
5.6787109375
 20
11.85283745659722
 30
0.0
 10
5.7078857421875
 20
11.88581678602431
 30
0.0
 10
5.739990234375
 20
11.91006808810764
 30
0.0
 10
5.755194769965278
 20
11.92527262369792
 30
0.0
 10
5.770399305555555
 20
11.94048394097222
 30
0.0
 10
5.785603841145833
 20
11.9556884765625
 30
0.0
 10
5.834757486979166
 20
11.99286566840278
 30
0.0
 10
5.881103515625
 20
12.03405083550347
 30
0.0
 10
5.931966145833333
 20
12.06973605685764
 30
0.0
 10
5.949869791666666
 20
12.08229573567708
 30
0.0
 10
5.9705810546875
 20
12.09740532769097
 30
0.0
 10
5.990885416666666
 20
12.10584852430556
 30
0.0
 10
5.997999403211805
 20
12.10881212022569
 30
0.0
 10
6.006171332465278
 20
12.10756429036458
 30
0.0
 10
6.011800130208333
 20
12.11155192057292
 30
0.0
  0
SPLINE
  5
41
330
3C
100
AcDbEntity
  8
Layer 1
370
     0
100
AcDbSpline
210
0.0
220
0.0
230
1.0
 70
    11
 71
     3
 72
   134
 73
   130
 74
     0
 42
0.0000000001
 43
0.0000000001
 40
0.0
 40
0.0
 40
0.0
 40
0.0
 40
1.0
 40
1.0
 40
1.0
 40
2.0
 40
2.0
 40
2.0
 40
3.0
 40
3.0
 40
3.0
 40
4.0
 40
4.0
 40
4.0
 40
5.0
 40
5.0
 40
5.0
 40
6.0
 40
6.0
 40
6.0
 40
7.0
 40
7.0
 40
7.0
 40
8.0
 40
8.0
 40
8.0
 40
9.0
 40
9.0
 40
9.0
 40
10.0
 40
10.0
 40
10.0
 40
11.0
 40
11.0
 40
11.0
 40
12.0
 40
12.0
 40
12.0
 40
13.0
 40
13.0
 40
13.0
 40
14.0
 40
14.0
 40
14.0
 40
15.0
 40
15.0
 40
15.0
 40
16.0
 40
16.0
 40
16.0
 40
17.0
 40
17.0
 40
17.0
 40
18.0
 40
18.0
 40
18.0
 40
19.0
 40
19.0
 40
19.0
 40
20.0
 40
20.0
 40
20.0
 40
21.0
 40
21.0
 40
21.0
 40
22.0
 40
22.0
 40
22.0
 40
23.0
 40
23.0
 40
23.0
 40
24.0
 40
24.0
 40
24.0
 40
25.0
 40
25.0
 40
25.0
 40
26.0
 40
26.0
 40
26.0
 40
27.0
 40
27.0
 40
27.0
 40
28.0
 40
28.0
 40
28.0
 40
29.0
 40
29.0
 40
29.0
 40
30.0
 40
30.0
 40
30.0
 40
31.0
 40
31.0
 40
31.0
 40
32.0
 40
32.0
 40
32.0
 40
33.0
 40
33.0
 40
33.0
 40
34.0
 40
34.0
 40
34.0
 40
35.0
 40
35.0
 40
35.0
 40
36.0
 40
36.0
 40
36.0
 40
37.0
 40
37.0
 40
37.0
 40
38.0
 40
38.0
 40
38.0
 40
39.0
 40
39.0
 40
39.0
 40
40.0
 40
40.0
 40
40.0
 40
41.0
 40
41.0
 40
41.0
 40
42.0
 40
42.0
 40
42.0
 40
43.0
 40
43.0
 40
43.0
 40
43.0
 10
7.52099609375
 20
12.11155192057292
 30
0.0
 10
7.584309895833333
 20
12.11180962456597
 30
0.0
 10
7.6307373046875
 20
12.06140814887153
 30
0.0
 10
7.669257269965278
 20
12.03362358940972
 30
0.0
 10
7.783094618055555
 20
11.95150417751736
 30
0.0
 10
7.885755750868055
 20
11.85295274522569
 30
0.0
 10
7.967678493923611
 20
11.73900689019097
 30
0.0
 10
7.991061740451388
 20
11.70646837022569
 30
0.0
 10
8.01816134982639
 20
11.67451307508681
 30
0.0
 10
8.039903428819445
 20
11.64016384548611
 30
0.0
 10
8.11093478732639
 20
11.52792697482639
 30
0.0
 10
8.167168511284721
 20
11.40355088975694
 30
0.0
 10
8.212877061631945
 20
11.26571316189236
 30
0.0
 10
8.232774522569445
 20
11.20570882161458
 30
0.0
 10
8.240614149305555
 20
11.14152018229167
 30
0.0
 10
8.256591796875
 20
11.07753499348958
 30
0.0
 10
8.25912814670139
 20
11.05536566840278
 30
0.0
 10
8.26165771484375
 20
11.03318277994792
 30
0.0
 10
8.26418728298611
 20
11.01101345486111
 30
0.0
 10
8.269856770833332
 20
10.98579237196181
 30
0.0
 10
8.267835828993055
 20
10.95358615451389
 30
0.0
 10
8.273695203993055
 20
10.92738172743056
 30
0.0
 10
8.273695203993055
 20
10.91407606336806
 30
0.0
 10
8.273695203993055
 20
10.90077039930556
 30
0.0
 10
8.273695203993055
 20
10.88746473524306
 30
0.0
 10
8.280341254340277
 20
10.85615370008681
 30
0.0
 10
8.278327094184027
 20
10.76868353949653
 30
0.0
 10
8.271796332465277
 20
10.73920355902778
 30
0.0
 10
8.271796332465277
 20
10.72970241970486
 30
0.0
 10
8.271796332465277
 20
10.72019449869792
 30
0.0
 10
8.271796332465277
 20
10.710693359375
 30
0.0
 10
8.266710069444445
 20
10.68813069661458
 30
0.0
 10
8.269849989149305
 20
10.66237386067708
 30
0.0
 10
8.26418728298611
 20
10.63846164279514
 30
0.0
 10
8.244588216145832
 20
10.55561659071181
 30
0.0
 10
8.237996419270832
 20
10.47427707248264
 30
0.0
 10
8.212877061631945
 20
10.39897325303819
 30
0.0
 10
8.16152615017361
 20
10.24507649739583
 30
0.0
 10
8.097954644097221
 20
10.10539415147569
 30
0.0
 10
8.013292100694445
 20
9.984605577256945
 30
0.0
 10
7.986857096354166
 20
9.946885850694445
 30
0.0
 10
7.957261827256944
 20
9.91119384765625
 30
0.0
 10
7.929660373263888
 20
9.87435574001736
 30
0.0
 10
7.919447157118055
 20
9.860724555121527
 30
0.0
 10
7.903767903645833
 20
9.849873860677082
 30
0.0
 10
7.893541124131944
 20
9.836344401041666
 30
0.0
 10
7.867106119791666
 20
9.801371256510416
 30
0.0
 10
7.833475748697916
 20
9.765828450520832
 30
0.0
 10
7.798509385850694
 20
9.73940700954861
 30
0.0
 10
7.786471896701388
 20
9.727369520399305
 30
0.0
 10
7.774427625868055
 20
9.715325249565971
 30
0.0
 10
7.762396918402778
 20
9.703294542100695
 30
0.0
 10
7.731513129340278
 20
9.679965549045138
 30
0.0
 10
7.702935112847221
 20
9.655809190538195
 30
0.0
 10
7.671156141493055
 20
9.632968478732638
 30
0.0
 10
7.630357530381944
 20
9.603644476996527
 30
0.0
 10
7.59765625
 20
9.57000732421875
 30
0.0
 10
7.540005154079861
 20
9.556932237413195
 30
0.0
 10
7.515672471788194
 20
9.551411946614582
 30
0.0
 10
7.490885416666666
 20
9.56317138671875
 30
0.0
 10
7.477281358506944
 20
9.570237901475695
 30
0.0
 10
7.421685112847221
 20
9.599127875434027
 30
0.0
 10
7.385877821180555
 20
9.676832411024305
 30
0.0
 10
7.433559841579861
 20
9.743211534288195
 30
0.0
 10
7.452772352430555
 20
9.769944932725695
 30
0.0
 10
7.488226996527778
 20
9.784986707899305
 30
0.0
 10
7.515299479166666
 20
9.804029676649305
 30
0.0
 10
7.558851453993055
 20
9.83468288845486
 30
0.0
 10
7.596611870659721
 20
9.87286376953125
 30
0.0
 10
7.638841417100694
 20
9.904764811197916
 30
0.0
 10
7.648980034722221
 20
9.915547688802082
 30
0.0
 10
7.65911865234375
 20
9.926317003038195
 30
0.0
 10
7.669257269965278
 20
9.937086317274305
 30
0.0
 10
7.700893825954861
 20
9.968729654947916
 30
0.0
 10
7.731458875868055
 20
9.999579535590277
 30
0.0
 10
7.758585611979166
 20
10.03592258029514
 30
0.0
 10
7.774380154079861
 20
10.05707465277778
 30
0.0
 10
7.794582790798611
 20
10.07689751519097
 30
0.0
 10
7.809909396701388
 20
10.09864637586806
 30
0.0
 10
7.863186306423611
 20
10.17426215277778
 30
0.0
 10
7.909912109375
 20
10.25821261935764
 30
0.0
 10
7.948662651909721
 20
10.34764946831597
 30
0.0
 10
7.9700927734375
 20
10.39708116319444
 30
0.0
 10
7.98480224609375
 20
10.45079210069444
 30
0.0
 10
8.001885308159721
 20
10.50350613064236
 30
0.0
 10
8.010687934027777
 20
10.53067355685764
 30
0.0
 10
8.01144070095486
 20
10.55690511067708
 30
0.0
 10
8.018995496961805
 20
10.58523898654514
 30
0.0
 10
8.02981228298611
 20
10.62582736545139
 30
0.0
 10
8.03000217013889
 20
10.67437744140625
 30
0.0
 10
8.039903428819445
 20
10.71829562717014
 30
0.0
 10
8.040534125434027
 20
10.73666720920139
 30
0.0
 10
8.04117160373264
 20
10.75504557291667
 30
0.0
 10
8.041802300347221
 20
10.77341715494792
 30
0.0
 10
8.046875
 20
10.79737006293403
 30
0.0
 10
8.043701171875
 20
10.83164469401042
 30
0.0
 10
8.043701171875
 20
10.85895453559028
 30
0.0
 10
8.043701171875
 20
10.87035454644097
 30
0.0
 10
8.043701171875
 20
10.88176133897569
 30
0.0
 10
8.043701171875
 20
10.89316813151042
 30
0.0
 10
8.04117160373264
 20
10.92357720269097
 30
0.0
 10
8.03863525390625
 20
10.95399305555556
 30
0.0
 10
8.03610568576389
 20
10.98440212673611
 30
0.0
 10
8.02032470703125
 20
11.05244276258681
 30
0.0
 10
8.016682942708332
 20
11.11991373697917
 30
0.0
 10
7.996188693576388
 20
11.18208143446181
 30
0.0
 10
7.959052191840278
 20
11.29471842447917
 30
0.0
 10
7.917249891493055
 20
11.39988199869792
 30
0.0
 10
7.859334309895833
 20
11.49190945095486
 30
0.0
 10
7.823947482638888
 20
11.54811604817708
 30
0.0
 10
7.782708062065971
 20
11.59937201605903
 30
0.0
 10
7.743381076388888
 20
11.65156385633681
 30
0.0
 10
7.725172254774305
 20
11.67574734157986
 30
0.0
 10
7.700127495659721
 20
11.69673665364583
 30
0.0
 10
7.678758409288194
 20
11.71809217664931
 30
0.0
 10
7.636311848958333
 20
11.76053195529514
 30
0.0
 10
7.593024359809028
 20
11.80430094401042
 30
0.0
 10
7.543809678819444
 20
11.83974202473958
 30
0.0
 10
7.503804524739583
 20
11.86855061848958
 30
0.0
 10
7.447943793402778
 20
11.89390055338542
 30
0.0
 10
7.422159830729166
 20
11.93667941623264
 30
0.0
 10
7.387532552083333
 20
11.99413384331597
 30
0.0
 10
7.422193739149305
 20
12.06771511501736
 30
0.0
 10
7.462076822916666
 20
12.09254964192708
 30
0.0
 10
7.472208658854166
 20
12.09697808159722
 30
0.0
 10
7.482354058159721
 20
12.10142008463542
 30
0.0
 10
7.492485894097221
 20
12.10584852430556
 30
0.0
 10
7.502427842881944
 20
12.10887993706597
 30
0.0
 10
7.513217502170138
 20
12.10662163628472
 30
0.0
 10
7.52099609375
 20
12.11155192057292
 30
0.0
  0
SPLINE
  5
42
330
3C
100
AcDbEntity
  8
Layer 1
370
     0
100
AcDbSpline
210
0.0
220
0.0
230
1.0
 70
    11
 71
     3
 72
   125
 73
   121
 74
     0
 42
0.0000000001
 43
0.0000000001
 40
0.0
 40
0.0
 40
0.0
 40
0.0
 40
1.0
 40
1.0
 40
1.0
 40
2.0
 40
2.0
 40
2.0
 40
3.0
 40
3.0
 40
3.0
 40
4.0
 40
4.0
 40
4.0
 40
5.0
 40
5.0
 40
5.0
 40
6.0
 40
6.0
 40
6.0
 40
7.0
 40
7.0
 40
7.0
 40
8.0
 40
8.0
 40
8.0
 40
9.0
 40
9.0
 40
9.0
 40
10.0
 40
10.0
 40
10.0
 40
11.0
 40
11.0
 40
11.0
 40
12.0
 40
12.0
 40
12.0
 40
13.0
 40
13.0
 40
13.0
 40
14.0
 40
14.0
 40
14.0
 40
15.0
 40
15.0
 40
15.0
 40
16.0
 40
16.0
 40
16.0
 40
17.0
 40
17.0
 40
17.0
 40
18.0
 40
18.0
 40
18.0
 40
19.0
 40
19.0
 40
19.0
 40
20.0
 40
20.0
 40
20.0
 40
21.0
 40
21.0
 40
21.0
 40
22.0
 40
22.0
 40
22.0
 40
23.0
 40
23.0
 40
23.0
 40
24.0
 40
24.0
 40
24.0
 40
25.0
 40
25.0
 40
25.0
 40
26.0
 40
26.0
 40
26.0
 40
27.0
 40
27.0
 40
27.0
 40
28.0
 40
28.0
 40
28.0
 40
29.0
 40
29.0
 40
29.0
 40
30.0
 40
30.0
 40
30.0
 40
31.0
 40
31.0
 40
31.0
 40
32.0
 40
32.0
 40
32.0
 40
33.0
 40
33.0
 40
33.0
 40
34.0
 40
34.0
 40
34.0
 40
35.0
 40
35.0
 40
35.0
 40
36.0
 40
36.0
 40
36.0
 40
37.0
 40
37.0
 40
37.0
 40
38.0
 40
38.0
 40
38.0
 40
39.0
 40
39.0
 40
39.0
 40
40.0
 40
40.0
 40
40.0
 40
40.0
 10
6.306410047743055
 20
11.75421142578125
 30
0.0
 10
6.326877170138888
 20
11.75450981987847
 30
0.0
 10
6.349690755208333
 20
11.75613742404514
 30
0.0
 10
6.365336100260416
 20
11.75041368272569
 30
0.0
 10
6.411614312065971
 20
11.73345947265625
 30
0.0
 10
6.464823404947916
 20
11.67793782552083
 30
0.0
 10
6.441365559895833
 20
11.60595024956597
 30
0.0
 10
6.437181260850694
 20
11.59310574001736
 30
0.0
 10
6.429945203993055
 20
11.57836235894097
 30
0.0
 10
6.42236328125
 20
11.56793212890625
 30
0.0
 10
6.405965169270833
 20
11.54541693793403
 30
0.0
 10
6.378024631076388
 20
11.53554280598958
 30
0.0
 10
6.353936089409721
 20
11.52041965060764
 30
0.0
 10
6.320014105902778
 20
11.49912516276042
 30
0.0
 10
6.288682725694444
 20
11.47391086154514
 30
0.0
 10
6.256991916232638
 20
11.45009358723958
 30
0.0
 10
6.236504448784721
 20
11.43468560112847
 30
0.0
 10
6.207939995659722
 20
11.40608045789931
 30
0.0
 10
6.192369249131944
 20
11.38546413845486
 30
0.0
 10
6.18603515625
 20
11.37975396050347
 30
0.0
 10
6.179694281684028
 20
11.37405734592014
 30
0.0
 10
6.173360188802083
 20
11.36836073133681
 30
0.0
 10
6.154886881510416
 20
11.34394666883681
 30
0.0
 10
6.133884006076388
 20
11.32109239366319
 30
0.0
 10
6.1163330078125
 20
11.29612223307292
 30
0.0
 10
6.070163302951388
 20
11.23040771484375
 30
0.0
 10
6.033793131510416
 20
11.15343560112847
 30
0.0
 10
6.006089952256944
 20
11.06993950737847
 30
0.0
 10
5.999471028645833
 20
11.04996066623264
 30
0.0
 10
5.998691134982638
 20
11.03231472439236
 30
0.0
 10
5.992784288194444
 20
11.01101345486111
 30
0.0
 10
5.985365125868055
 20
10.98423936631944
 30
0.0
 10
5.982354058159722
 20
10.95096164279514
 30
0.0
 10
5.975680881076388
 20
10.92167833116319
 30
0.0
 10
5.975043402777778
 20
10.90520562065972
 30
0.0
 10
5.974412706163194
 20
10.88873291015625
 30
0.0
 10
5.973782009548611
 20
10.87225341796875
 30
0.0
 10
5.970513237847222
 20
10.85673692491319
 30
0.0
 10
5.967793782552083
 20
10.81063503689236
 30
0.0
 10
5.971883138020833
 20
10.79243299696181
 30
0.0
 10
5.975179036458333
 20
10.77774386935764
 30
0.0
 10
5.971923828125
 20
10.75938585069444
 30
0.0
 10
5.975680881076388
 20
10.74300808376736
 30
0.0
 10
5.986233181423611
 20
10.69693332248264
 30
0.0
 10
5.988362630208333
 20
10.65041097005208
 30
0.0
 10
6.002292209201388
 20
10.60805257161458
 30
0.0
 10
6.026224772135416
 20
10.53526475694444
 30
0.0
 10
6.053995768229166
 20
10.46627468532986
 30
0.0
 10
6.091627332899305
 20
10.40656873914931
 30
0.0
 10
6.117133246527778
 20
10.36610921223958
 30
0.0
 10
6.148749457465278
 20
10.33012559678819
 30
0.0
 10
6.177164713541666
 20
10.29252794053819
 30
0.0
 10
6.187934027777778
 20
10.28239610460069
 30
0.0
 10
6.198703342013888
 20
10.27225070529514
 30
0.0
 10
6.20947265625
 20
10.26211886935764
 30
0.0
 10
6.248399522569444
 20
10.22320556640625
 30
0.0
 10
6.290025499131944
 20
10.18666585286458
 30
0.0
 10
6.336825900607638
 20
10.15567355685764
 30
0.0
 10
6.368828667534721
 20
10.13447401258681
 30
0.0
 10
6.407118055555555
 20
10.12123616536458
 30
0.0
 10
6.428059895833333
 20
10.08914523654514
 30
0.0
 10
6.458774142795138
 20
10.04207356770833
 30
0.0
 10
6.442369249131944
 20
9.964619954427082
 30
0.0
 10
6.405253092447916
 20
9.937086317274305
 30
0.0
 10
6.388176812065971
 20
9.924418131510416
 30
0.0
 10
6.368665907118055
 20
9.916063096788195
 30
0.0
 10
6.344428168402778
 20
9.910474989149305
 30
0.0
 10
6.303778754340278
 20
9.901102701822916
 30
0.0
 10
6.272203233506944
 20
9.92599148220486
 30
0.0
 10
6.251288519965278
 20
9.938985188802082
 30
0.0
 10
6.209208170572916
 20
9.965121799045138
 30
0.0
 10
6.170335557725694
 20
9.990085177951388
 30
0.0
 10
6.131544325086805
 20
10.01881917317708
 30
0.0
 10
6.1146240234375
 20
10.03135172526042
 30
0.0
 10
6.100728352864583
 20
10.04990641276042
 30
0.0
 10
6.084025065104166
 20
10.06253390842014
 30
0.0
 10
6.046956380208333
 20
10.09055582682292
 30
0.0
 10
6.013115776909722
 20
10.12793646918403
 30
0.0
 10
5.985182020399305
 20
10.16517469618056
 30
0.0
 10
5.967447916666666
 20
10.18882242838542
 30
0.0
 10
5.945380316840278
 20
10.21099853515625
 30
0.0
 10
5.92816162109375
 20
10.23550754123264
 30
0.0
 10
5.871405707465278
 20
10.31629096137153
 30
0.0
 10
5.823377821180555
 20
10.41075981987847
 30
0.0
 10
5.789408365885416
 20
10.51301405164931
 30
0.0
 10
5.773179796006944
 20
10.56185574001736
 30
0.0
 10
5.76837158203125
 20
10.60913764105903
 30
0.0
 10
5.755194769965278
 20
10.66317409939236
 30
0.0
 10
5.740207248263888
 20
10.72463650173611
 30
0.0
 10
5.730075412326388
 20
10.85974799262153
 30
0.0
 10
5.745686848958333
 20
10.92928059895833
 30
0.0
 10
5.747585720486111
 20
10.95018853081597
 30
0.0
 10
5.749491373697916
 20
10.97110324435764
 30
0.0
 10
5.751397026909722
 20
10.99200439453125
 30
0.0
 10
5.767293294270833
 20
11.0570068359375
 30
0.0
 10
5.775200737847222
 20
11.12248399522569
 30
0.0
 10
5.798909505208333
 20
11.18018256293403
 30
0.0
 10
5.835625542534722
 20
11.26951768663194
 30
0.0
 10
5.8743896484375
 20
11.35329182942708
 30
0.0
 10
5.926255967881944
 20
11.42728000217014
 30
0.0
 10
5.943454318576388
 20
11.45180257161458
 30
0.0
 10
5.965521918402778
 20
11.47397867838542
 30
0.0
 10
5.983283148871528
 20
11.49760606553819
 30
0.0
 10
6.005330403645833
 20
11.52694363064236
 30
0.0
 10
6.030056423611111
 20
11.55723063151042
 30
0.0
 10
6.059312608506944
 20
11.57933892144097
 30
0.0
 10
6.065016004774305
 20
11.58567301432292
 30
0.0
 10
6.070719401041666
 20
11.59200710720486
 30
0.0
 10
6.076422797309028
 20
11.59834798177083
 30
0.0
 10
6.090610080295138
 20
11.61239963107639
 30
0.0
 10
6.10809326171875
 20
11.62831624348958
 30
0.0
 10
6.123942057291666
 20
11.64016384548611
 30
0.0
 10
6.164469401041666
 20
11.67045762803819
 30
0.0
 10
6.205851236979166
 20
11.70054117838542
 30
0.0
 10
6.2493896484375
 20
11.72760009765625
 30
0.0
 10
6.261189778645833
 20
11.73493109809028
 30
0.0
 10
6.275200737847221
 20
11.74334716796875
 30
0.0
 10
6.287407769097221
 20
11.74850802951389
 30
0.0
 10
6.294074164496528
 20
11.75133599175347
 30
0.0
 10
6.301133897569444
 20
11.75042724609375
 30
0.0
 10
6.306410047743055
 20
11.75421142578125
 30
0.0
  0
SPLINE
  5
43
330
3C
100
AcDbEntity
  8
Layer 1
370
     0
100
AcDbSpline
210
0.0
220
0.0
230
1.0
 70
    11
 71
     3
 72
   110
 73
   106
 74
     0
 42
0.0000000001
 43
0.0000000001
 40
0.0
 40
0.0
 40
0.0
 40
0.0
 40
1.0
 40
1.0
 40
1.0
 40
2.0
 40
2.0
 40
2.0
 40
3.0
 40
3.0
 40
3.0
 40
4.0
 40
4.0
 40
4.0
 40
5.0
 40
5.0
 40
5.0
 40
6.0
 40
6.0
 40
6.0
 40
7.0
 40
7.0
 40
7.0
 40
8.0
 40
8.0
 40
8.0
 40
9.0
 40
9.0
 40
9.0
 40
10.0
 40
10.0
 40
10.0
 40
11.0
 40
11.0
 40
11.0
 40
12.0
 40
12.0
 40
12.0
 40
13.0
 40
13.0
 40
13.0
 40
14.0
 40
14.0
 40
14.0
 40
15.0
 40
15.0
 40
15.0
 40
16.0
 40
16.0
 40
16.0
 40
17.0
 40
17.0
 40
17.0
 40
18.0
 40
18.0
 40
18.0
 40
19.0
 40
19.0
 40
19.0
 40
20.0
 40
20.0
 40
20.0
 40
21.0
 40
21.0
 40
21.0
 40
22.0
 40
22.0
 40
22.0
 40
23.0
 40
23.0
 40
23.0
 40
24.0
 40
24.0
 40
24.0
 40
25.0
 40
25.0
 40
25.0
 40
26.0
 40
26.0
 40
26.0
 40
27.0
 40
27.0
 40
27.0
 40
28.0
 40
28.0
 40
28.0
 40
29.0
 40
29.0
 40
29.0
 40
30.0
 40
30.0
 40
30.0
 40
31.0
 40
31.0
 40
31.0
 40
32.0
 40
32.0
 40
32.0
 40
33.0
 40
33.0
 40
33.0
 40
34.0
 40
34.0
 40
34.0
 40
35.0
 40
35.0
 40
35.0
 40
35.0
 10
7.197869194878471
 20
11.75421142578125
 30
0.0
 10
7.275634765625
 20
11.75576443142361
 30
0.0
 10
7.305379231770833
 20
11.72694905598958
 30
0.0
 10
7.349928114149305
 20
11.69719102647569
 30
0.0
 10
7.436618381076388
 20
11.63927544487847
 30
0.0
 10
7.516276041666666
 20
11.57273356119792
 30
0.0
 10
7.578016493055555
 20
11.49000379774306
 30
0.0
 10
7.590020073784721
 20
11.47392442491319
 30
0.0
 10
7.606228298611111
 20
11.45905897352431
 30
0.0
 10
7.617933485243055
 20
11.44248453776042
 30
0.0
 10
7.659206814236111
 20
11.38402642144097
 30
0.0
 10
7.698072645399305
 20
11.3189697265625
 30
0.0
 10
7.728176540798611
 20
11.25050862630208
 30
0.0
 10
7.759182400173611
 20
11.18000623914931
 30
0.0
 10
7.777357313368055
 20
11.10414632161458
 30
0.0
 10
7.798509385850694
 20
11.02241346571181
 30
0.0
 10
7.804070366753471
 20
11.00092909071181
 30
0.0
 10
7.801025390625
 20
10.98213026258681
 30
0.0
 10
7.806111653645833
 20
10.95969645182292
 30
0.0
 10
7.823479546440971
 20
10.88307698567708
 30
0.0
 10
7.818277994791666
 20
10.73690456814236
 30
0.0
 10
7.800408257378471
 20
10.66507297092014
 30
0.0
 10
7.787584092881944
 20
10.61353895399306
 30
0.0
 10
7.783698187934028
 20
10.56728786892361
 30
0.0
 10
7.768093532986111
 20
10.52062310112847
 30
0.0
 10
7.7337646484375
 20
10.41792127821181
 30
0.0
 10
7.688252766927083
 20
10.32233344184028
 30
0.0
 10
7.631239149305555
 20
10.24120415581597
 30
0.0
 10
7.614610460069444
 20
10.21753607855903
 30
0.0
 10
7.593248155381944
 20
10.19568549262153
 30
0.0
 10
7.576117621527778
 20
10.17277696397569
 30
0.0
 10
7.548292371961805
 20
10.13557264539931
 30
0.0
 10
7.516194661458333
 20
10.09809705946181
 30
0.0
 10
7.479180230034721
 20
10.07013617621528
 30
0.0
 10
7.469048394097221
 20
10.05999755859375
 30
0.0
 10
7.458902994791666
 20
10.04986572265625
 30
0.0
 10
7.448764377170138
 20
10.03972710503472
 30
0.0
 10
7.408216688368055
 20
10.00914849175347
 30
0.0
 10
7.369377983940971
 20
9.980095757378471
 30
0.0
 10
7.325222439236111
 20
9.952290852864582
 30
0.0
 10
7.299228244357638
 20
9.935933430989582
 30
0.0
 10
7.276563856336805
 20
9.918897840711805
 30
0.0
 10
7.241590711805555
 20
9.910474989149305
 30
0.0
 10
7.219462076822916
 20
9.905144585503471
 30
0.0
 10
7.195461697048611
 20
9.91451687282986
 30
0.0
 10
7.182657877604166
 20
9.91998291015625
 30
0.0
 10
7.121710883246528
 20
9.945977105034721
 30
0.0
 10
7.082573784722221
 20
10.02552625868056
 30
0.0
 10
7.131340874565971
 20
10.0948486328125
 30
0.0
 10
7.148776584201388
 20
10.11962890625
 30
0.0
 10
7.177517361111111
 20
10.12978108723958
 30
0.0
 10
7.203572591145833
 20
10.14616563585069
 30
0.0
 10
7.234456380208333
 20
10.16560194227431
 30
0.0
 10
7.263834635416666
 20
10.18901231553819
 30
0.0
 10
7.29290771484375
 20
10.21079508463542
 30
0.0
 10
7.322157118055555
 20
10.23270670572917
 30
0.0
 10
7.352566189236111
 20
10.26328531901042
 30
0.0
 10
7.3746337890625
 20
10.29252794053819
 30
0.0
 10
7.38287353515625
 20
10.30076090494792
 30
0.0
 10
7.39111328125
 20
10.30900065104167
 30
0.0
 10
7.399346245659721
 20
10.31724039713542
 30
0.0
 10
7.418490939670138
 20
10.34272596571181
 30
0.0
 10
7.439351399739583
 20
10.36827935112847
 30
0.0
 10
7.456366644965278
 20
10.39516872829861
 30
0.0
 10
7.494425455729166
 20
10.45529513888889
 30
0.0
 10
7.525160047743055
 20
10.52343071831597
 30
0.0
 10
7.549506293402778
 20
10.59664577907986
 30
0.0
 10
7.556240505642361
 20
10.61689588758681
 30
0.0
 10
7.556891547309028
 20
10.63428412543403
 30
0.0
 10
7.562811957465278
 20
10.65557183159722
 30
0.0
 10
7.570638020833333
 20
10.68369547526042
 30
0.0
 10
7.572828504774305
 20
10.71788194444444
 30
0.0
 10
7.579915364583333
 20
10.74870469835069
 30
0.0
 10
7.580552842881944
 20
10.76644558376736
 30
0.0
 10
7.581190321180555
 20
10.78418646918403
 30
0.0
 10
7.581821017795138
 20
10.80192735460069
 30
0.0
 10
7.58477783203125
 20
10.81574842664931
 30
0.0
 10
7.587517632378471
 20
10.84600830078125
 30
0.0
 10
7.583726671006944
 20
10.86275906032986
 30
0.0
 10
7.579983181423611
 20
10.87923855251736
 30
0.0
 10
7.584099663628471
 20
10.89975992838542
 30
0.0
 10
7.579915364583333
 20
10.91788058810764
 30
0.0
 10
7.569688585069444
 20
10.96221923828125
 30
0.0
 10
7.568766276041666
 20
11.00788709852431
 30
0.0
 10
7.555216471354166
 20
11.04902479383681
 30
0.0
 10
7.531670464409721
 20
11.12049018012153
 30
0.0
 10
7.50634765625
 20
11.18959554036458
 30
0.0
 10
7.469672309027778
 20
11.24860975477431
 30
0.0
 10
7.442328559027778
 20
11.29261610243056
 30
0.0
 10
7.409071180555555
 20
11.33161756727431
 30
0.0
 10
7.378438313802083
 20
11.37215847439236
 30
0.0
 10
7.367668999565971
 20
11.38229031032986
 30
0.0
 10
7.356892903645833
 20
11.39243570963542
 30
0.0
 10
7.346123589409721
 20
11.40256754557292
 30
0.0
 10
7.307122124565971
 20
11.44156222873264
 30
0.0
 10
7.265597873263888
 20
11.47781711154514
 30
0.0
 10
7.218777126736111
 20
11.50901285807292
 30
0.0
 10
7.185370551215278
 20
11.53127034505208
 30
0.0
 10
7.145033094618055
 20
11.54508463541667
 30
0.0
 10
7.123738606770833
 20
11.57933892144097
 30
0.0
 10
7.092780219184028
 20
11.62911648220486
 30
0.0
 10
7.112270779079861
 20
11.70318603515625
 30
0.0
 10
7.150349934895833
 20
11.73139784071181
 30
0.0
 10
7.16375732421875
 20
11.74133978949653
 30
0.0
 10
7.185858832465278
 20
11.74519178602431
 30
0.0
 10
7.197869194878471
 20
11.75421142578125
 30
0.0
  0
SPLINE
  5
44
330
3C
100
AcDbEntity
  8
Layer 1
370
     0
100
AcDbSpline
210
0.0
220
0.0
230
1.0
 70
    11
 71
     3
 72
    62
 73
    58
 74
     0
 42
0.0000000001
 43
0.0000000001
 40
0.0
 40
0.0
 40
0.0
 40
0.0
 40
1.0
 40
1.0
 40
1.0
 40
2.0
 40
2.0
 40
2.0
 40
3.0
 40
3.0
 40
3.0
 40
4.0
 40
4.0
 40
4.0
 40
5.0
 40
5.0
 40
5.0
 40
6.0
 40
6.0
 40
6.0
 40
7.0
 40
7.0
 40
7.0
 40
8.0
 40
8.0
 40
8.0
 40
9.0
 40
9.0
 40
9.0
 40
10.0
 40
10.0
 40
10.0
 40
11.0
 40
11.0
 40
11.0
 40
12.0
 40
12.0
 40
12.0
 40
13.0
 40
13.0
 40
13.0
 40
14.0
 40
14.0
 40
14.0
 40
15.0
 40
15.0
 40
15.0
 40
16.0
 40
16.0
 40
16.0
 40
17.0
 40
17.0
 40
17.0
 40
18.0
 40
18.0
 40
18.0
 40
19.0
 40
19.0
 40
19.0
 40
19.0
 10
6.574415418836805
 20
11.37025960286458
 30
0.0
 10
6.593926323784721
 20
11.37043592664931
 30
0.0
 10
6.614610460069444
 20
11.37187364366319
 30
0.0
 10
6.629543728298611
 20
11.36646185980903
 30
0.0
 10
6.683132595486111
 20
11.34701199001736
 30
0.0
 10
6.738755967881944
 20
11.26990424262153
 30
0.0
 10
6.696072048611111
 20
11.19918484157986
 30
0.0
 10
6.670186360677083
 20
11.15631103515625
 30
0.0
 10
6.631883409288194
 20
11.15171305338542
 30
0.0
 10
6.591525607638888
 20
11.12506103515625
 30
0.0
 10
6.519422743055555
 20
11.07744004991319
 30
0.0
 10
6.473158094618055
 20
11.01434326171875
 30
0.0
 10
6.445163302951388
 20
10.92167833116319
 30
0.0
 10
6.438707139756944
 20
10.90030246310764
 30
0.0
 10
6.425421820746528
 20
10.84903971354167
 30
0.0
 10
6.431857638888888
 20
10.81903754340278
 30
0.0
 10
6.436089409722221
 20
10.79935031467014
 30
0.0
 10
6.4342041015625
 20
10.77736409505208
 30
0.0
 10
6.439466688368055
 20
10.75821261935764
 30
0.0
 10
6.458089192708333
 20
10.69043646918403
 30
0.0
 10
6.495537651909721
 20
10.61233859592014
 30
0.0
 10
6.543999565972221
 20
10.57574462890625
 30
0.0
 10
6.562608506944444
 20
10.56169297960069
 30
0.0
 10
6.580986870659721
 20
10.54614935980903
 30
0.0
 10
6.601033528645833
 20
10.53392198350694
 30
0.0
 10
6.638197157118055
 20
10.51125081380208
 30
0.0
 10
6.666022406684028
 20
10.50596110026042
 30
0.0
 10
6.688462999131944
 20
10.46739366319444
 30
0.0
 10
6.694851345486111
 20
10.45641411675347
 30
0.0
 10
6.694491916232638
 20
10.44544135199653
 30
0.0
 10
6.697970920138888
 20
10.43128119574653
 30
0.0
 10
6.7158203125
 20
10.35854085286458
 30
0.0
 10
6.653252495659721
 20
10.31028238932292
 30
0.0
 10
6.601033528645833
 20
10.29823133680556
 30
0.0
 10
6.575249565972221
 20
10.29227701822917
 30
0.0
 10
6.550896538628471
 20
10.30335828993056
 30
0.0
 10
6.536404079861111
 20
10.30963134765625
 30
0.0
 10
6.491963704427083
 20
10.32887776692708
 30
0.0
 10
6.458184136284721
 20
10.35342746310764
 30
0.0
 10
6.42236328125
 20
10.37995741102431
 30
0.0
 10
6.337117513020833
 20
10.44308810763889
 30
0.0
 10
6.277031792534721
 20
10.53098551432292
 30
0.0
 10
6.234185112847221
 20
10.63656277126736
 30
0.0
 10
6.224433051215278
 20
10.66059705946181
 30
0.0
 10
6.222547743055555
 20
10.68382432725694
 30
0.0
 10
6.215176052517361
 20
10.710693359375
 30
0.0
 10
6.197224934895833
 20
10.77614339192708
 30
0.0
 10
6.194322374131944
 20
10.88753933376736
 30
0.0
 10
6.213270399305555
 20
10.95589192708333
 30
0.0
 10
6.256849500868055
 20
11.11302354600694
 30
0.0
 10
6.333326551649305
 20
11.22715250651042
 30
0.0
 10
6.450873480902778
 20
11.30942789713542
 30
0.0
 10
6.477864583333333
 20
11.32832845052083
 30
0.0
 10
6.511176215277778
 20
11.34774441189236
 30
0.0
 10
6.542100694444444
 20
11.36075168185764
 30
0.0
 10
6.5523681640625
 20
11.36506483289931
 30
0.0
 10
6.565809461805555
 20
11.36419677734375
 30
0.0
 10
6.574415418836805
 20
11.37025960286458
 30
0.0
  0
SPLINE
  5
45
330
3C
100
AcDbEntity
  8
Layer 1
370
     0
100
AcDbSpline
210
0.0
220
0.0
230
1.0
 70
    11
 71
     3
 72
    62
 73
    58
 74
     0
 42
0.0000000001
 43
0.0000000001
 40
0.0
 40
0.0
 40
0.0
 40
0.0
 40
1.0
 40
1.0
 40
1.0
 40
2.0
 40
2.0
 40
2.0
 40
3.0
 40
3.0
 40
3.0
 40
4.0
 40
4.0
 40
4.0
 40
5.0
 40
5.0
 40
5.0
 40
6.0
 40
6.0
 40
6.0
 40
7.0
 40
7.0
 40
7.0
 40
8.0
 40
8.0
 40
8.0
 40
9.0
 40
9.0
 40
9.0
 40
10.0
 40
10.0
 40
10.0
 40
11.0
 40
11.0
 40
11.0
 40
12.0
 40
12.0
 40
12.0
 40
13.0
 40
13.0
 40
13.0
 40
14.0
 40
14.0
 40
14.0
 40
15.0
 40
15.0
 40
15.0
 40
16.0
 40
16.0
 40
16.0
 40
17.0
 40
17.0
 40
17.0
 40
18.0
 40
18.0
 40
18.0
 40
19.0
 40
19.0
 40
19.0
 40
19.0
 10
6.952670627170138
 20
11.36646185980903
 30
0.0
 10
7.039265950520833
 20
11.36705864800347
 30
0.0
 10
7.083475748697916
 20
11.32158745659722
 30
0.0
 10
7.13323974609375
 20
11.28472222222222
 30
0.0
 10
7.215053982204861
 20
11.22412109375
 30
0.0
 10
7.276475694444444
 20
11.13865831163194
 30
0.0
 10
7.317613389756944
 20
11.03761800130208
 30
0.0
 10
7.331203884548611
 20
11.00423855251736
 30
0.0
 10
7.334940592447916
 20
10.97141520182292
 30
0.0
 10
7.344224717881944
 20
10.93308512369792
 30
0.0
 10
7.3568115234375
 20
10.88115098741319
 30
0.0
 10
7.359890407986111
 20
10.78616672092014
 30
0.0
 10
7.346123589409721
 20
10.73160129123264
 30
0.0
 10
7.307359483506944
 20
10.57792154947917
 30
0.0
 10
7.245049370659721
 20
10.46314154730903
 30
0.0
 10
7.135145399305555
 20
10.38186306423611
 30
0.0
 10
7.092678493923611
 20
10.35045708550347
 30
0.0
 10
7.047987196180555
 20
10.31201171875
 30
0.0
 10
6.988783094618055
 20
10.29823133680556
 30
0.0
 10
6.967678493923611
 20
10.29331461588542
 30
0.0
 10
6.944281684027778
 20
10.30105251736111
 30
0.0
 10
6.9317626953125
 20
10.30583360460069
 30
0.0
 10
6.881571451822916
 20
10.32500542534722
 30
0.0
 10
6.831671820746528
 20
10.3863525390625
 30
0.0
 10
6.863335503472221
 20
10.45979139539931
 30
0.0
 10
6.884670681423611
 20
10.50927056206597
 30
0.0
 10
6.935899522569444
 20
10.52002631293403
 30
0.0
 10
6.977376302083333
 20
10.54913330078125
 30
0.0
 10
7.04559326171875
 20
10.59699164496528
 30
0.0
 10
7.08544921875
 20
10.66209581163194
 30
0.0
 10
7.112331814236111
 20
10.75250922309028
 30
0.0
 10
7.118767632378471
 20
10.77416314019097
 30
0.0
 10
7.128757052951388
 20
10.83469645182292
 30
0.0
 10
7.121839735243055
 20
10.86655680338542
 30
0.0
 10
7.116807725694444
 20
10.88969590928819
 30
0.0
 10
7.115614149305555
 20
10.91328938802083
 30
0.0
 10
7.108534071180555
 20
10.93498399522569
 30
0.0
 10
7.091606987847221
 20
10.98680962456597
 30
0.0
 10
7.063815646701388
 20
11.02715386284722
 30
0.0
 10
7.034403483072916
 20
11.06612820095486
 30
0.0
 10
7.018310546875
 20
11.08746337890625
 30
0.0
 10
6.981635199652778
 20
11.11442057291667
 30
0.0
 10
6.9583740234375
 20
11.12885877821181
 30
0.0
 10
6.918924967447916
 20
11.15334743923611
 30
0.0
 10
6.891805013020833
 20
11.15613471137153
 30
0.0
 10
6.869032118055555
 20
11.19918484157986
 30
0.0
 10
6.858662923177083
 20
11.21881103515625
 30
0.0
 10
6.848890516493055
 20
11.25715467664931
 30
0.0
 10
6.859530978732638
 20
11.28662109375
 30
0.0
 10
6.863701714409721
 20
11.29818386501736
 30
0.0
 10
6.871392144097221
 20
11.31290690104167
 30
0.0
 10
6.8785400390625
 20
11.32273356119792
 30
0.0
 10
6.889458550347221
 20
11.33776177300347
 30
0.0
 10
6.911777072482638
 20
11.35330539279514
 30
0.0
 10
6.929863823784721
 20
11.36075168185764
 30
0.0
 10
6.937228732638888
 20
11.36378987630208
 30
0.0
 10
6.946567111545138
 20
11.36243353949653
 30
0.0
 10
6.952670627170138
 20
11.36646185980903
 30
0.0
  0
ENDBLK
  5
3F
330
3C
100
AcDbEntity
  8
0
100
AcDbBlockEnd
  0
ENDSEC
  0
SECTION
  2
ENTITIES
  0
INSERT
  5
3D
330
1F
100
AcDbEntity
  8
Layer 1
100
AcDbBlockReference
  2
block 2
 10
0.0
 20
0.0
 30
0.0
  0
ENDSEC
  0
SECTION
  2
OBJECTS
  0
DICTIONARY
  5
C
330
0
100
AcDbDictionary
281
     1
  3
ACAD_GROUP
350
D
  3
ACAD_LAYOUT
350
1A
  3
ACAD_MLINESTYLE
350
17
  3
ACAD_PLOTSETTINGS
350
19
  3
ACAD_PLOTSTYLENAME
350
E
  3
ACAD_TABLESTYLE
350
46
  3
ACAD_VISUALSTYLE
350
2A
  0
DICTIONARY
  5
D
102
{ACAD_REACTORS
330
C
102
}
330
C
100
AcDbDictionary
281
     1
  0
DICTIONARY
  5
1A
102
{ACAD_REACTORS
330
C
102
}
330
C
100
AcDbDictionary
281
     1
  3
Layout1
350
1E
  3
Layout2
350
26
  3
Model
350
22
  0
DICTIONARY
  5
17
102
{ACAD_REACTORS
330
C
102
}
330
C
100
AcDbDictionary
281
     1
  3
Standard
350
18
  0
DICTIONARY
  5
19
102
{ACAD_REACTORS
330
C
102
}
330
C
100
AcDbDictionary
281
     1
  0
ACDBDICTIONARYWDFLT
  5
E
102
{ACAD_REACTORS
330
C
102
}
330
C
100
AcDbDictionary
281
     1
  3
Normal
350
F
100
AcDbDictionaryWithDefault
340
F
  0
DICTIONARY
  5
46
102
{ACAD_REACTORS
330
C
102
}
330
C
100
AcDbDictionary
281
     1
  0
DICTIONARY
  5
2A
102
{ACAD_REACTORS
330
C
102
}
330
C
100
AcDbDictionary
281
     1
  3
2dWireframe
350
2F
  3
3D Hidden
350
31
  3
3dWireframe
350
30
  3
Basic
350
32
  3
Brighten
350
36
  3
ColorChange
350
3A
  3
Conceptual
350
34
  3
Dim
350
35
  3
Facepattern
350
39
  3
Flat
350
2B
  3
FlatWithEdges
350
2C
  3
Gouraud
350
2D
  3
GouraudWithEdges
350
2E
  3
Linepattern
350
38
  3
Realistic
350
33
  3
Thicken
350
37
  0
LAYOUT
  5
1E
102
{ACAD_REACTORS
330
1A
102
}
330
1A
100
AcDbPlotSettings
  1

  2
none_device
  4

  6

 40
0.0
 41
0.0
 42
0.0
 43
0.0
 44
0.0
 45
0.0
 46
0.0
 47
0.0
 48
0.0
 49
0.0
140
0.0
141
0.0
142
1.0
143
1.0
 70
   688
 72
     0
 73
     0
 74
     5
  7

 75
    16
 76
     0
 77
     2
 78
   300
147
1.0
148
0.0
149
0.0
100
AcDbLayout
  1
Layout1
 70
     1
 71
     1
 10
0.0
 20
0.0
 11
12.0
 21
9.0
 12
0.0
 22
0.0
 32
0.0
 14
1.000000000000000E+20
 24
1.000000000000000E+20
 34
1.000000000000000E+20
 15
-1.000000000000000E+20
 25
-1.000000000000000E+20
 35
-1.000000000000000E+20
146
0.0
 13
0.0
 23
0.0
 33
0.0
 16
1.0
 26
0.0
 36
0.0
 17
0.0
 27
1.0
 37
0.0
 76
     0
330
1B
  0
LAYOUT
  5
26
102
{ACAD_REACTORS
330
1A
102
}
330
1A
100
AcDbPlotSettings
  1

  2
none_device
  4

  6

 40
0.0
 41
0.0
 42
0.0
 43
0.0
 44
0.0
 45
0.0
 46
0.0
 47
0.0
 48
0.0
 49
0.0
140
0.0
141
0.0
142
1.0
143
1.0
 70
   688
 72
     0
 73
     0
 74
     5
  7

 75
    16
 76
     0
 77
     2
 78
   300
147
1.0
148
0.0
149
0.0
100
AcDbLayout
  1
Layout2
 70
     1
 71
     2
 10
0.0
 20
0.0
 11
0.0
 21
0.0
 12
0.0
 22
0.0
 32
0.0
 14
0.0
 24
0.0
 34
0.0
 15
0.0
 25
0.0
 35
0.0
146
0.0
 13
0.0
 23
0.0
 33
0.0
 16
1.0
 26
0.0
 36
0.0
 17
0.0
 27
1.0
 37
0.0
 76
     0
330
23
  0
LAYOUT
  5
22
102
{ACAD_REACTORS
330
1A
102
}
330
1A
100
AcDbPlotSettings
  1

  2
none_device
  4

  6

 40
0.0
 41
0.0
 42
0.0
 43
0.0
 44
0.0
 45
0.0
 46
0.0
 47
0.0
 48
0.0
 49
0.0
140
0.0
141
0.0
142
1.0
143
1.0
 70
  1712
 72
     0
 73
     0
 74
     0
  7

 75
     0
 76
     0
 77
     2
 78
   300
147
1.0
148
0.0
149
0.0
100
AcDbLayout
  1
Model
 70
     1
 71
     0
 10
0.0
 20
0.0
 11
12.0
 21
9.0
 12
0.0
 22
0.0
 32
0.0
 14
1.000000000000000E+20
 24
1.000000000000000E+20
 34
1.000000000000000E+20
 15
-1.000000000000000E+20
 25
-1.000000000000000E+20
 35
-1.000000000000000E+20
146
0.0
 13
0.0
 23
0.0
 33
0.0
 16
1.0
 26
0.0
 36
0.0
 17
0.0
 27
1.0
 37
0.0
 76
     0
330
1F
331
29
  0
MLINESTYLE
  5
18
102
{ACAD_REACTORS
330
17
102
}
330
17
100
AcDbMlineStyle
  2
Standard
 70
     0
  3

 62
   256
 51
90.0
 52
90.0
 71
     2
 49
0.5
 62
   256
  6
BYLAYER
 49
-0.5
 62
   256
  6
BYLAYER
  0
ACDBPLACEHOLDER
  5
F
102
{ACAD_REACTORS
330
E
102
}
330
E
  0
VISUALSTYLE
  5
2F
102
{ACAD_REACTORS
330
2A
102
}
330
2A
100
AcDbVisualStyle
  2
2dWireframe
 70
     4
 71
     0
 72
     2
 73
     0
 90
        0
 40
-0.6
 41
-30.0
 62
     5
 63
     7
421
 16777215
 74
     1
 91
        4
 64
     7
 65
   257
 75
     1
175
     1
 42
1.0
 92
        0
 66
   257
 43
1.0
 76
     1
 77
     6
 78
     2
 67
     7
 79
     5
170
     0
171
     0
290
     0
174
     0
 93
        1
 44
0.0
173
     0
291
     0
 45
0.0
1001
ACAD
1000
AcDbSavedByObjectVersion
1070
     0
  0
VISUALSTYLE
  5
31
102
{ACAD_REACTORS
330
2A
102
}
330
2A
100
AcDbVisualStyle
  2
3D Hidden
 70
     6
 71
     1
 72
     2
 73
     2
 90
        0
 40
-0.6
 41
-30.0
 62
     5
 63
     7
421
 16777215
 74
     2
 91
        2
 64
     7
 65
   257
 75
     2
175
     1
 42
40.0
 92
        0
 66
   257
 43
1.0
 76
     1
 77
     6
 78
     2
 67
     7
 79
     3
170
     0
171
     0
290
     0
174
     0
 93
        1
 44
0.0
173
     0
291
     0
 45
0.0
1001
ACAD
1000
AcDbSavedByObjectVersion
1070
     0
  0
VISUALSTYLE
  5
30
102
{ACAD_REACTORS
330
2A
102
}
330
2A
100
AcDbVisualStyle
  2
3dWireframe
 70
     5
 71
     0
 72
     2
 73
     0
 90
        0
 40
-0.6
 41
-30.0
 62
     5
 63
     7
421
 16777215
 74
     1
 91
        4
 64
     7
 65
   257
 75
     1
175
     1
 42
1.0
 92
        0
 66
   257
 43
1.0
 76
     1
 77
     6
 78
     2
 67
     7
 79
     5
170
     0
171
     0
290
     0
174
     0
 93
        1
 44
0.0
173
     0
291
     0
 45
0.0
1001
ACAD
1000
AcDbSavedByObjectVersion
1070
     0
  0
VISUALSTYLE
  5
32
102
{ACAD_REACTORS
330
2A
102
}
330
2A
100
AcDbVisualStyle
  2
Basic
 70
     7
 71
     1
 72
     0
 73
     1
 90
        0
 40
-0.6
 41
-30.0
 62
     5
 63
     7
421
 16777215
 74
     0
 91
        4
 64
     7
 65
   257
 75
     1
175
     1
 42
1.0
 92
        8
 66
     7
 43
1.0
 76
     1
 77
     6
 78
     2
 67
     7
 79
     5
170
     0
171
     0
290
     0
174
     0
 93
        1
 44
0.0
173
     0
291
     1
 45
0.0
1001
ACAD
1000
AcDbSavedByObjectVersion
1070
     0
  0
VISUALSTYLE
  5
36
102
{ACAD_REACTORS
330
2A
102
}
330
2A
100
AcDbVisualStyle
  2
Brighten
 70
    12
 71
     2
 72
     2
 73
     0
 90
        0
 40
-0.6
 41
-30.0
 62
     5
 63
     7
421
 16777215
 74
     1
 91
        4
 64
     7
 65
   257
 75
     1
175
     1
 42
1.0
 92
        8
 66
     7
 43
1.0
 76
     1
 77
     6
 78
     2
 67
     7
 79
     5
170
     0
171
     0
290
     0
174
     0
 93
        1
 44
50.0
173
     0
291
     1
 45
0.0
1001
ACAD
1000
AcDbSavedByObjectVersion
1070
     0
  0
VISUALSTYLE
  5
3A
102
{ACAD_REACTORS
330
2A
102
}
330
2A
100
AcDbVisualStyle
  2
ColorChange
 70
    16
 71
     2
 72
     2
 73
     3
 90
        0
 40
-0.6
 41
-30.0
 62
     5
 63
     8
421
  8421504
 74
     1
 91
        4
 64
     7
 65
   257
 75
     1
175
     1
 42
1.0
 92
        8
 66
     8
424
  8421504
 43
1.0
 76
     1
 77
     6
 78
     2
 67
     7
 79
     5
170
     0
171
     0
290
     0
174
     0
 93
        1
 44
0.0
173
     0
291
     1
 45
0.0
1001
ACAD
1000
AcDbSavedByObjectVersion
1070
     0
  0
VISUALSTYLE
  5
34
102
{ACAD_REACTORS
330
2A
102
}
330
2A
100
AcDbVisualStyle
  2
Conceptual
 70
     9
 71
     3
 72
     2
 73
     0
 90
        0
 40
-0.6
 41
-30.0
 62
     5
 63
     7
421
 16777215
 74
     2
 91
        2
 64
     7
 65
   257
 75
     1
175
     1
 42
40.0
 92
        8
 66
     7
 43
1.0
 76
     1
 77
     6
 78
     2
 67
     7
 79
     3
170
     0
171
     0
290
     0
174
     0
 93
        1
 44
0.0
173
     0
291
     0
 45
0.0
1001
ACAD
1000
AcDbSavedByObjectVersion
1070
     0
  0
VISUALSTYLE
  5
35
102
{ACAD_REACTORS
330
2A
102
}
330
2A
100
AcDbVisualStyle
  2
Dim
 70
    11
 71
     2
 72
     2
 73
     0
 90
        0
 40
-0.6
 41
-30.0
 62
     5
 63
     7
421
 16777215
 74
     1
 91
        4
 64
     7
 65
   257
 75
     1
175
     1
 42
1.0
 92
        8
 66
     7
 43
1.0
 76
     1
 77
     6
 78
     2
 67
     7
 79
     5
170
     0
171
     0
290
     0
174
     0
 93
        1
 44
-50.0
173
     0
291
     1
 45
0.0
1001
ACAD
1000
AcDbSavedByObjectVersion
1070
     0
  0
VISUALSTYLE
  5
39
102
{ACAD_REACTORS
330
2A
102
}
330
2A
100
AcDbVisualStyle
  2
Facepattern
 70
    15
 71
     2
 72
     2
 73
     0
 90
        0
 40
-0.6
 41
-30.0
 62
     5
 63
     7
421
 16777215
 74
     1
 91
        4
 64
     7
 65
   257
 75
     1
175
     1
 42
1.0
 92
        8
 66
     7
 43
1.0
 76
     1
 77
     6
 78
     2
 67
     7
 79
     5
170
     0
171
     0
290
     0
174
     0
 93
        1
 44
0.0
173
     0
291
     1
 45
0.0
1001
ACAD
1000
AcDbSavedByObjectVersion
1070
     0
  0
VISUALSTYLE
  5
2B
102
{ACAD_REACTORS
330
2A
102
}
330
2A
100
AcDbVisualStyle
  2
Flat
 70
     0
 71
     2
 72
     1
 73
     1
 90
        2
 40
-0.6
 41
30.0
 62
     5
 63
     7
421
 16777215
 74
     0
 91
        4
 64
     7
 65
   257
 75
     1
175
     1
 42
1.0
 92
        8
 66
     7
 43
1.0
 76
     1
 77
     6
 78
     2
 67
     7
 79
     5
170
     0
171
     0
290
     0
174
     0
 93
       13
 44
0.0
173
     0
291
     1
 45
0.0
1001
ACAD
1000
AcDbSavedByObjectVersion
1070
     0
  0
VISUALSTYLE
  5
2C
102
{ACAD_REACTORS
330
2A
102
}
330
2A
100
AcDbVisualStyle
  2
FlatWithEdges
 70
     1
 71
     2
 72
     1
 73
     1
 90
        2
 40
-0.6
 41
30.0
 62
     5
 63
     7
421
 16777215
 74
     1
 91
        4
 64
     7
 65
   257
 75
     1
175
     1
 42
1.0
 92
        0
 66
   257
 43
1.0
 76
     1
 77
     6
 78
     2
 67
     7
 79
     5
170
     0
171
     0
290
     0
174
     0
 93
       13
 44
0.0
173
     0
291
     1
 45
0.0
1001
ACAD
1000
AcDbSavedByObjectVersion
1070
     0
  0
VISUALSTYLE
  5
2D
102
{ACAD_REACTORS
330
2A
102
}
330
2A
100
AcDbVisualStyle
  2
Gouraud
 70
     2
 71
     2
 72
     2
 73
     1
 90
        2
 40
-0.6
 41
30.0
 62
     5
 63
     7
421
 16777215
 74
     0
 91
        4
 64
     7
 65
   257
 75
     1
175
     1
 42
1.0
 92
        0
 66
     7
 43
1.0
 76
     1
 77
     6
 78
     2
 67
     7
 79
     5
170
     0
171
     0
290
     0
174
     0
 93
       13
 44
0.0
173
     0
291
     1
 45
0.0
1001
ACAD
1000
AcDbSavedByObjectVersion
1070
     0
  0
VISUALSTYLE
  5
2E
102
{ACAD_REACTORS
330
2A
102
}
330
2A
100
AcDbVisualStyle
  2
GouraudWithEdges
 70
     3
 71
     2
 72
     2
 73
     1
 90
        2
 40
-0.6
 41
30.0
 62
     5
 63
     7
421
 16777215
 74
     1
 91
        4
 64
     7
 65
   257
 75
     1
175
     1
 42
1.0
 92
        0
 66
   257
 43
1.0
 76
     1
 77
     6
 78
     2
 67
     7
 79
     5
170
     0
171
     0
290
     0
174
     0
 93
       13
 44
0.0
173
     0
291
     1
 45
0.0
1001
ACAD
1000
AcDbSavedByObjectVersion
1070
     0
  0
VISUALSTYLE
  5
38
102
{ACAD_REACTORS
330
2A
102
}
330
2A
100
AcDbVisualStyle
  2
Linepattern
 70
    14
 71
     2
 72
     2
 73
     0
 90
        0
 40
-0.6
 41
-30.0
 62
     5
 63
     7
421
 16777215
 74
     1
 91
        4
 64
     7
 65
   257
 75
     7
175
     7
 42
1.0
 92
        8
 66
     7
 43
1.0
 76
     1
 77
     6
 78
     2
 67
     7
 79
     5
170
     0
171
     0
290
     0
174
     0
 93
        1
 44
0.0
173
     0
291
     1
 45
0.0
1001
ACAD
1000
AcDbSavedByObjectVersion
1070
     0
  0
VISUALSTYLE
  5
33
102
{ACAD_REACTORS
330
2A
102
}
330
2A
100
AcDbVisualStyle
  2
Realistic
 70
     8
 71
     2
 72
     2
 73
     0
 90
        0
 40
-0.6
 41
-30.0
 62
     5
 63
     7
421
 16777215
 74
     1
 91
        0
 64
     7
 65
   257
 75
     1
175
     1
 42
1.0
 92
        8
 66
     8
424
  7895160
 43
1.0
 76
     1
 77
     6
 78
     2
 67
     7
 79
     5
170
     0
171
     0
290
     0
174
     0
 93
       13
 44
0.0
173
     0
291
     0
 45
0.0
1001
ACAD
1000
AcDbSavedByObjectVersion
1070
     0
  0
VISUALSTYLE
  5
37
102
{ACAD_REACTORS
330
2A
102
}
330
2A
100
AcDbVisualStyle
  2
Thicken
 70
    13
 71
     2
 72
     2
 73
     0
 90
        0
 40
-0.6
 41
-30.0
 62
     5
 63
     7
421
 16777215
 74
     1
 91
        4
 64
     7
 65
   257
 75
     1
175
     1
 42
1.0
 92
       12
 66
     7
 43
1.0
 76
     1
 77
     6
 78
     2
 67
     7
 79
     5
170
     0
171
     0
290
     0
174
     0
 93
        1
 44
0.0
173
     0
291
     1
 45
0.0
1001
ACAD
1000
AcDbSavedByObjectVersion
1070
     0
  0
ENDSEC
  0
EOF
